<svg width="66" height="68" viewBox="0 0 66 68" fill="none" xmlns="http://www.w3.org/2000/svg">
<path fill-rule="evenodd" clip-rule="evenodd" d="M65.9976 10.1772C65.9976 10.1772 62.8258 7.23184 59.044 5.00488C55.2623 2.84975 50.5046 0.407265 47.6378 0.191752C44.771 0.0480763 40.2573 0.55094 37.6345 1.84402C35.0116 3.1371 28.9121 6.65714 27.0822 8.88411C25.3133 11.0392 21.8975 16.7863 21.2876 19.4442C20.6776 22.1022 18.7867 27.9211 18.7257 29.2142C18.6647 30.5072 16.6519 41.8576 16.6519 41.8576C16.6519 41.8576 16.6519 43.7972 13.9071 47.1736C11.1622 50.55 9.33237 52.0586 8.05146 52.8488C6.83154 53.5671 2.74482 55.6504 2.74482 55.6504L0 56.6562L4.3917 56.7998L10.5523 56.9435C10.5523 56.9435 16.9569 56.7998 19.7627 55.0757C22.6295 53.2798 25.6793 50.6936 26.4112 49.6879C27.0822 48.6103 29.766 43.9409 30.6809 41.4984C31.5959 39.1278 33.3647 33.8118 33.3647 33.8118C33.3647 33.8118 34.3407 30.0044 35.1946 28.4958C36.0486 27.059 39.9523 22.3178 43.795 19.6598C47.6378 17.0736 50.7486 14.8466 53.4324 13.7691C56.1772 12.7633 57.5801 11.9731 59.654 11.3984C61.6668 10.8956 64.9606 10.1772 64.9606 10.1772C64.9606 10.1772 66.0585 10.1772 65.9976 10.1772Z" fill="white"/>
<path fill-rule="evenodd" clip-rule="evenodd" d="M41.9652 67.8633C41.9652 67.8633 42.8191 65.7081 43.978 64.6306C45.137 63.553 45.4419 62.691 46.7838 61.7571C48.1867 60.8232 49.5896 60.2485 51.1145 60.033C52.7004 59.8175 55.0183 60.1766 56.0552 60.2485C57.0921 60.3922 60.3859 60.5358 60.3859 60.5358L60.6299 54.5733C60.6299 54.5733 60.5689 47.7487 59.8979 44.3723C59.227 40.996 55.8112 30.2203 55.8112 30.2203C55.8112 30.2203 53.7374 25.6945 51.1145 21.959C48.4307 18.2953 47.3328 17.0022 47.3328 17.0022L43.2461 19.8039L39.8303 22.5337L37.9394 24.4733L35.6826 27.5623L38.3664 31.2979C38.3664 31.2979 39.3423 32.7346 40.0133 34.6743C40.7453 36.6139 41.7822 43.5103 41.7822 43.5103L42.5751 52.4182L42.7581 58.0215C42.7581 58.0215 42.7581 62.4036 42.5141 64.0559C42.2701 65.78 41.9652 67.8633 41.9652 67.8633Z" fill="white"/>
<path fill-rule="evenodd" clip-rule="evenodd" d="M23.3005 52.1302C23.3005 52.1302 25.0694 51.9147 26.4723 51.6273C27.8142 51.2681 29.8271 50.6216 32.0229 50.5497C34.1578 50.4779 37.0246 51.0526 37.7565 51.2681C38.5495 51.4836 42.7582 52.7049 42.7582 52.7049L42.5142 49.3285L42.2092 46.1676L41.9043 43.4378C41.9043 43.4378 39.8304 43.0068 38.4275 42.9349C37.0246 42.7913 33.3648 43.366 33.3648 43.366L29.2171 44.0843C29.2171 44.0843 28.6682 45.0182 28.0582 46.1676C27.5092 47.317 27.0823 47.8199 26.5943 48.7538C26.1063 49.6158 25.4354 50.1905 25.3134 50.4061C25.1914 50.5497 23.3005 52.1302 23.3005 52.1302Z" fill="white"/>
</svg>
